<?xml version="1.0" encoding="UTF-8"?>
<svg id="Layer_1" data-name="Layer 1" xmlns="http://www.w3.org/2000/svg" viewBox="0 0 196.66 71.86">
  <defs>
    <style>
      .cls-1 {
        fill: #52afca;
      }

      .cls-2 {
        fill: #fff;
      }

      .cls-3 {
        fill: #74bd91;
      }
    </style>
  </defs>
  <path class="cls-1" d="M184.55,30.81h0c-1.09-2.29-.12-5.03,2.18-6.12l4.79-2.27-37.12-17.79-37.23,17.79,4.76,2.27c2.3,1.09,3.27,3.83,2.17,6.12l-9.5-4.52c-1.51-.72-2.45-2.2-2.45-3.87,0-1.67.94-3.15,2.45-3.87L152.55.42c1.18-.56,2.52-.56,3.69,0l37.85,18.14c1.5.71,2.44,2.2,2.44,3.87s-.94,3.15-2.45,3.87l-9.52,4.52h0Z"/>
  <path class="cls-3" d="M155.7,71.55c-.86.41-1.86.41-2.72,0l-38.5-18.23c-1.49-.71-2.43-2.17-2.45-3.81-.02-1.65.88-3.13,2.35-3.88l9.54-4.82c1.15,2.26.24,5.03-2.03,6.17l-4.86,2.46,37.31,17.67,37.31-17.67-4.87-2.46c-2.27-1.15-3.18-3.91-2.03-6.17l9.4,4.75c1.37.69,2.35,2.01,2.48,3.53.15,1.81-.82,3.47-2.44,4.23l-38.5,18.23h0Z"/>
  <path class="cls-2" d="M156.64,46.82v-17.54l8.32,4.21c1.15-2.26.24-5.03-2.03-6.17l-3.48-1.76,11.3-5.57c-1.13-2.27-3.89-3.21-6.17-2.08l-7.94,3.91v-1.42c0-1.92-.84-3.74-2.3-4.99-1.46,1.25-2.31,3.08-2.31,5v1.47l-8.57-4.06c-2.3-1.09-5.05-.11-6.14,2.18l11.83,5.6-3.4,1.72c-2.27,1.15-3.18,3.91-2.03,6.17h0s8.31-4.2,8.31-4.2v17.51l-18.58-9.42v.02c0,3.15,1.77,6.02,4.58,7.45l11.21,5.68-7.66,3.83c1.14,2.26,3.91,3.18,6.18,2.04l6.58-3.29,6.44,3.29h0c2.26,1.15,5.04.26,6.2-2l-7.56-3.85,11.21-5.64c2.82-1.42,4.61-4.31,4.61-7.46l-18.59,9.37Z"/>
  <path class="cls-2" d="M16.47,10.65c-.83.86-2.12,1.11-3.19.59-.96-.47-2.04-.71-3.17-.71-3.51,0-6.46,2.65-6.46,6.37,0,3.47,2.74,6.31,6.27,6.31,1.86,0,3.43-.45,4.68-1.38v-3.16h-4.49c0-1.54,1.25-2.78,2.79-2.78h4.97v7.72c-2.13,1.8-4.97,2.84-7.95,2.84C4.58,26.54-.13,22.03,0,16.89-.1,11.29,4.82,7.26,10.11,7.34c2.63,0,5.1.93,7.02,2.62l-.66.68h0Z"/>
  <path class="cls-2" d="M35.84,10.68h-11.06v4.61h8.76c.82,0,1.48.66,1.48,1.47s-.66,1.47-1.48,1.47h-8.76v4.85h11.27c0,1.7-1.38,3.08-3.08,3.08h-11.65V7.61h11.43c1.7,0,3.08,1.38,3.08,3.08"/>
  <path class="cls-2" d="M47.63,26.44c-5.35.11-10.05-4.4-9.92-9.55-.13-5.15,4.58-9.65,9.92-9.55,5.32-.11,9.97,4.4,9.87,9.55.11,5.15-4.55,9.65-9.87,9.55M47.63,23.2c3.51,0,6.25-2.84,6.25-6.31s-2.74-6.31-6.25-6.31-6.27,2.84-6.27,6.31,2.74,6.31,6.27,6.31"/>
  <path class="cls-2" d="M75.16,9.38c-.8,1.45-2.51,2.12-4.09,1.61-1.3-.42-2.61-.66-3.72-.66-1.99,0-3.35.74-3.35,2.25,0,.98.53,1.41,3.48,2.2l2.02.56c4.12,1.14,6.04,2.15,6.14,5.36,0,3.71-2.98,5.73-7.68,5.73-3.06,0-6.17-.87-8.51-2.47.86-1.39,2.57-1.98,4.11-1.43,1.54.55,3.23.87,4.69.87,2.26,0,3.75-.8,3.75-2.52,0-1.27-.72-1.64-3.38-2.31l-2.1-.53c-4.41-1.11-6.17-2.2-6.27-5.23,0-1.8.69-3.15,2.05-4.08,1.36-.93,3.14-1.41,5.32-1.41,2.69,0,5.48.74,7.58,1.99l-.03.05Z"/>
  <path class="cls-2" d="M91.53,22.09h-9.07l-1.68,4.08c-1.86,0-3.11-1.89-2.39-3.59l5.44-12.88c.54-1.27,1.78-2.09,3.16-2.09s2.62.82,3.16,2.09l5.46,12.88c.72,1.71-.53,3.59-2.39,3.59h-.02l-1.68-4.08ZM90.33,19.22l-3.35-8.14-3.35,8.14h6.7,0Z"/>
  <path class="cls-2" d="M1.5,33.17c.26,0,.47-.21.47-.48s-.21-.48-.47-.48c-.28,0-.49.21-.49.48s.21.48.49.48"/>
  <path class="cls-2" d="M2.81,33.17c.27,0,.48-.21.48-.48s-.21-.48-.48-.48-.47.21-.47.48.21.48.47.48"/>
  <path class="cls-2" d="M2.24,37.16h10.7s.03,0,.06,0h3.77l.21-.7c-.46-.21-.67-.67-.87-1.4-.3-1.03-.61-1.44-1.59-1.46-.47,0-.91.16-1.33.48l.04.05c.2.27.55.36.87.27.12-.04.25-.05.37-.05.6.04.7.25.93,1.04.13.43.23.68.47.95h-2.77s-1.67,0-1.67,0h-6.7s-1.12,0-1.12,0v-2.22c-.35-.19-.9-.37-1.47-.37-1.1,0-1.83.66-1.83,1.7s.76,1.7,1.92,1.7M2.08,34.5c.27,0,.52.05.73.17v1.67h-.69c-.61,0-1.02-.3-1.02-.91s.42-.93.98-.93"/>
  <path class="cls-2" d="M30.83,36.88c.32.17.68.26,1.08.28,0,0,.03,0,.05,0,.01,0,.02,0,.03,0h.01c.52,0,1-.12,1.43-.37.41.23.86.35,1.34.36.01,0,.04,0,.09,0h0c.73,0,1.42-.29,1.83-.7h0s0-4.18,0-4.18c-.44,0-.8.36-.8.8v3.05c-.25.13-.62.2-.98.21h-.06c-.38,0-.76-.07-1.03-.21v-3.84c-.44,0-.8.36-.8.8v3.04c-.29.14-.63.21-1.04.21-.33,0-.61-.05-.84-.15.03-.13.05-.27.05-.43,0-1-.71-1.74-1.7-1.74s-1.7.73-1.7,1.74c0,.16.01.3.05.43-.23.1-.51.15-.83.15-.38,0-.76-.07-1.03-.21v-1.78h-.8v1.79c-.2.14-.43.21-.68.21s-.47-.07-.68-.2v-1.5h-.8v1.5c-.21.13-.43.2-.68.2s-.47-.07-.67-.21v-1.49h-.8v1.47c-.29.14-.62.21-.98.22h-.06c-.38,0-.76-.07-1.04-.21v-3.84c-.44,0-.8.36-.8.8v3.17c0,.29.08.42.32.55.37.2.87.34,1.43.35,0,0,.03,0,.04,0,.01,0,.02,0,.03,0h.02c.58,0,1.1-.15,1.41-.36.27.21.66.36,1.11.36.4,0,.76-.12,1.08-.35.31.23.67.35,1.06.35.42,0,.82-.12,1.15-.34.4.21.82.32,1.26.33.01,0,.03,0,.06,0,0,0,.01,0,.02,0h.01c.42,0,.81-.09,1.15-.28.3.38.78.62,1.33.62s1.02-.23,1.33-.62M28.59,35.76c0-.56.36-.97.9-.97s.92.41.92.97-.38.97-.92.97-.9-.41-.9-.97"/>
  <path class="cls-2" d="M40.62,33.17c.26,0,.47-.21.47-.48s-.21-.48-.47-.48c-.28,0-.49.21-.49.48s.21.48.49.48"/>
  <path class="cls-2" d="M41.93,33.17c.27,0,.48-.21.48-.48s-.21-.48-.48-.48-.47.21-.47.48.21.48.47.48"/>
  <path class="cls-2" d="M41.36,37.16h7.42c.42,0,.82-.09,1.18-.28.31.4.79.62,1.33.62h0c.99,0,1.69-.73,1.69-1.73s-.71-1.74-1.69-1.74-1.7.73-1.7,1.74c0,.16.01.3.05.43-.23.1-.52.15-.86.15h-4.91s-1.12,0-1.12,0v-2.22c-.35-.19-.9-.37-1.47-.37-1.1,0-1.83.66-1.83,1.7s.76,1.7,1.92,1.7M51.28,34.79c.56,0,.92.41.92.97s-.38.97-.92.97-.9-.41-.9-.97.36-.97.9-.97M41.2,34.5c.27,0,.52.05.73.17v1.67h-.69c-.61,0-1.02-.3-1.02-.91s.42-.93.98-.93"/>
  <path class="cls-2" d="M54.38,36.8c.36.2.87.34,1.43.35.01,0,.03,0,.06,0,0,0,.01,0,.02,0h7.83s.03,0,.06,0h0s.04,0,.06,0h.01c.7-.02,1.36-.3,1.75-.69h0s0-4.18,0-4.18c-.44,0-.8.36-.8.8v3.04c-.25.13-.61.2-.96.21h0s-1.48,0-1.48,0c.48-.31.8-.87.8-1.44,0-.85-.66-1.3-1.69-1.3-.58,0-1.18.15-1.78.45l-.13.62,1.08,1.68h-4.67,0s-.11,0-.11,0c-.38,0-.76-.07-1.04-.21v-3.84c-.44,0-.8.36-.8.8v3.17c0,.29.08.42.32.55M60.5,34.6c.31-.15.64-.23.97-.23.57,0,.92.26.92.72,0,.48-.42.91-.99,1.13l-.9-1.62Z"/>
  <path class="cls-2" d="M67.77,36.37v-4.08c-.44,0-.8.36-.8.8v4.08c.44,0,.8-.36.8-.8"/>
  <path class="cls-2" d="M73.01,33.17c.27,0,.48-.21.48-.48s-.21-.48-.48-.48-.47.21-.47.48.21.48.47.48"/>
  <path class="cls-2" d="M72.44,37.16h4.07c.52,0,1-.12,1.43-.37.41.23.86.35,1.35.36.01,0,.04,0,.07,0,0,0,0,0,.01,0h0c.52,0,1-.12,1.43-.37.41.23.86.35,1.35.36.01,0,.03,0,.05,0,0,0,.02,0,.02,0h10.86s.03,0,.06,0h0c.73,0,1.42-.29,1.83-.7h0s0-4.18,0-4.18c-.44,0-.8.36-.8.8v3.04c-.25.13-.62.2-.98.21h-.93v-.83c0-.96-.26-1.66-.78-2.11-.51-.44-1.19-.67-2.04-.67-.27,0-.55.02-.84.06,0,.38.31.68.69.66h.13c.59,0,1.08.16,1.46.47.38.31.57.83.57,1.54v.87h-1.09c.25-.26.37-.57.37-.95,0-.81-.65-1.33-1.43-1.33s-1.41.52-1.41,1.33c0,.38.12.7.36.95h-6.05c-.38,0-.76-.07-1.03-.21v-2.3c-.44,0-.8.36-.8.8v1.51c-.29.14-.63.21-1.04.21-.38,0-.76-.07-1.03-.21v-2.3c-.44,0-.8.36-.8.8v1.51c-.29.14-.63.21-1.04.21h-1.57s-1.12,0-1.12,0v-2.22c-.35-.19-.9-.37-1.47-.37-1.1,0-1.83.66-1.83,1.7s.76,1.7,1.92,1.7M89.34,34.77c.4,0,.69.29.69.72,0,.47-.24.79-.69.85-.45-.06-.69-.39-.69-.85,0-.44.29-.72.69-.72M72.28,34.5c.27,0,.52.05.73.17v1.67h-.69c-.61,0-1.02-.3-1.02-.91s.42-.93.98-.93"/>
  <path class="cls-2" d="M71.7,33.17c.26,0,.47-.21.47-.48s-.21-.48-.47-.48c-.28,0-.49.21-.49.48s.21.48.49.48"/>
  <path class="cls-2" d="M78.66,32.67h-.38c-.29,0-.42-.12-.42-.3,0-.14.1-.25.25-.25.08,0,.15.02.21.08l.29-.31c-.13-.12-.32-.23-.56-.23-.38,0-.64.27-.64.61,0,.16.05.29.15.4h-.32v.52h1.41v-.52Z"/>
  <path class="cls-2" d="M80.99,38.13c0,.26.21.47.48.47s.48-.2.48-.47-.21-.48-.48-.48-.48.21-.48.48"/>
  <path class="cls-2" d="M79.68,38.13c0,.26.21.47.49.47s.48-.2.48-.47-.21-.48-.48-.48-.49.21-.49.48"/>
  <path class="cls-2" d="M97.14,36.37v-4.08c-.44,0-.8.36-.8.8v4.08c.44,0,.8-.36.8-.8"/>
  <path class="cls-2" d="M2.33,40.64c0,.27.2.48.47.48s.48-.21.48-.48-.21-.48-.48-.48-.47.21-.47.48"/>
  <path class="cls-2" d="M1.01,40.64c0,.27.21.48.49.48.26,0,.47-.21.47-.48s-.21-.48-.47-.48c-.28,0-.49.21-.49.48"/>
  <path class="cls-2" d="M2.24,45.1h2.4c.52,0,1-.12,1.43-.37.42.23.86.35,1.35.36.01,0,.03,0,.05,0,0,0,.02,0,.02,0h3.64c.35,0,.7-.05,1.03-.14.33-.09.6-.21.8-.35h0v-2.85c-.44,0-.8.36-.8.8v1.55c-.24.11-.63.17-1.04.17h-3.62c-.38,0-.76-.07-1.03-.21v-2.3c-.44,0-.8.36-.8.8v1.51c-.27.13-.59.2-.97.21h-1.08v-2.22c-.35-.19-.9-.37-1.47-.37-1.1,0-1.83.66-1.83,1.7s.76,1.7,1.92,1.7M2.08,42.45c.27,0,.52.05.73.17v1.67h-.69c-.61,0-1.02-.3-1.02-.91s.42-.93.98-.93"/>
  <path class="cls-2" d="M6.73,46.55c.27,0,.48-.2.48-.47s-.21-.48-.48-.48-.48.21-.48.48c0,.26.21.47.48.47"/>
  <path class="cls-2" d="M5.42,45.6c-.28,0-.49.21-.49.48,0,.26.21.47.49.47s.48-.2.48-.47-.21-.48-.48-.48"/>
  <path class="cls-2" d="M12.53,40.19c-.28,0-.49.22-.49.49s.22.48.49.48.48-.21.48-.48-.21-.49-.48-.49"/>
  <path class="cls-2" d="M14.56,44.74c.36.2.87.34,1.43.35.01,0,.04,0,.07,0,0,0,0,0,.01,0h3.08c.59,0,1.23-.09,1.74-.27.33.17.69.26,1.05.27.01,0,.03,0,.06,0,0,0,.01,0,.02,0h1.69c.42,0,.82-.09,1.18-.28.31.4.79.62,1.33.62h0c.98,0,1.69-.73,1.69-1.73s-.71-1.74-1.69-1.74-1.7.73-1.7,1.74c0,.16.01.3.05.43-.23.1-.52.15-.86.15h-1.73c-.27,0-.55-.07-.72-.17v-.33c-.03-1.01-.48-1.31-1.67-1.65l-.42-.11,1.35-1.02c.29-.22.34-.63.11-.92l-2.41,1.86.08.28c.06.22.24.39.45.45l.46.12c1.02.29,1.21.43,1.24,1.02v.25c-.29.12-.74.22-1.21.22h-3.05,0s-.11,0-.11,0c-.38,0-.76-.07-1.04-.21v-3.84c-.44,0-.8.36-.8.8v3.17c0,.29.08.42.32.55M26.2,42.73c.56,0,.92.41.92.97s-.38.97-.92.97-.9-.41-.9-.97.36-.97.9-.97"/>
  <path class="cls-2" d="M37.28,46.08c0-.27-.21-.48-.48-.48s-.48.21-.48.48c0,.26.21.47.48.47s.48-.2.48-.47"/>
  <path class="cls-2" d="M35.97,46.08c0-.27-.21-.48-.48-.48s-.49.21-.49.48c0,.26.21.47.49.47s.48-.2.48-.47"/>
  <path class="cls-2" d="M36.53,41.77c-.44,0-.8.36-.8.8v1.51c-.29.14-.63.21-1.04.21h-1.56s-1.13,0-1.13,0v-2.09c-.49-.25-.98-.37-1.47-.37-1.12,0-1.84.69-1.84,1.65s.71,1.63,1.93,1.63h.58c-.05.66-.39.98-1.16.98-.13,0-.27-.01-.4-.03-.39-.05-.75.21-.82.59.35.13.8.19,1.19.19,1.15,0,1.9-.54,1.98-1.74h2.7c.52,0,1-.12,1.43-.37.42.23.87.35,1.35.36,0,0,.02,0,.04,0,.01,0,.02,0,.04,0h4.43c.73,0,1.42-.29,1.83-.69h0s0-4.18,0-4.18c-.44,0-.8.36-.8.8v3.04c-.25.13-.62.2-.98.21h-.38c-.22,0-.34-.02-.42-.08-.27-.27-.41-.64-.56-1.18-.3-1.05-.61-1.45-1.58-1.47-.47,0-.92.16-1.33.48l.03.04c.21.27.57.37.9.28.12-.03.23-.05.35-.05.61.03.68.24.92,1.04.13.44.23.68.47.95h-2.87c-.38,0-.76-.07-1.03-.21v-2.3ZM31.21,44.28h-.71c-.6,0-1.01-.3-1.01-.86s.42-.86,1-.86c.25,0,.49.05.72.17v1.55Z"/>
  <path class="cls-2" d="M38.96,46.07c0,.27.22.49.49.49s.48-.21.48-.49-.21-.48-.48-.48-.49.21-.49.48"/>
  <path class="cls-2" d="M45.96,44.31v-4.08c-.44,0-.8.36-.8.8v4.08c.44,0,.8-.36.8-.8"/>
  <path class="cls-2" d="M51.09,41.51c0,.27.21.48.49.48s.48-.21.48-.48-.22-.48-.48-.48c-.28,0-.49.21-.49.48"/>
  <path class="cls-2" d="M52.41,41.51c0,.27.21.48.48.48s.48-.21.48-.48-.21-.48-.48-.48-.48.21-.48.48"/>
  <path class="cls-2" d="M53.43,45.1c.96,0,1.72-.17,2.17-.41v-2.93c-.44,0-.8.36-.8.8v1.53c-.24.12-.7.2-1.26.2h-2.7c-.8,0-1.21-.34-1.21-1.02,0-.23.04-.49.13-.8h0c-.44-.08-.85.23-.9.67-.01.12-.02.24-.02.35,0,1.17.71,1.61,1.94,1.61h2.65Z"/>
  <path class="cls-2" d="M65.41,44.29h-6.59,0s-.11,0-.11,0c-.38,0-.76-.07-1.04-.21v-3.84c-.44,0-.8.36-.8.8v3.17c0,.29.08.42.32.55.36.2.87.34,1.43.35.01,0,.03,0,.06,0,0,0,.01,0,.02,0h6.71c.42,0,.82-.09,1.18-.28.31.4.79.62,1.33.62h0c.98,0,1.69-.73,1.69-1.73s-.71-1.74-1.69-1.74-1.7.73-1.7,1.74c0,.16.01.3.05.43-.23.1-.52.15-.86.15M67.92,42.73c.56,0,.92.41.92.97s-.38.97-.92.97-.9-.41-.9-.97.36-.97.9-.97"/>
  <path class="cls-2" d="M72.34,45.1h.58c-.05.66-.39.98-1.16.98-.13,0-.27-.01-.4-.03-.39-.05-.75.21-.82.59.35.13.8.2,1.19.2,1.15,0,1.9-.54,1.98-1.74h1.03c.52,0,1-.12,1.43-.37.42.23.86.35,1.35.36h0s.08,0,.08,0h6.23c.42,0,.81-.09,1.15-.28.3.38.78.62,1.33.62s1.02-.23,1.33-.62c.32.17.69.27,1.08.28,0,0,.02,0,.03,0,.01,0,.03,0,.04,0h.02c.73,0,1.42-.29,1.83-.7h0s0-4.18,0-4.18c-.44,0-.8.36-.8.8v3.04c-.27.14-.66.21-1.04.21-.33,0-.61-.05-.84-.15.03-.13.05-.26.05-.43,0-1-.71-1.74-1.7-1.74s-1.7.73-1.7,1.74c0,.16.01.3.05.43-.23.1-.51.15-.83.15h-1.59s-1.48,0-1.48,0c.48-.31.8-.87.8-1.44,0-.85-.66-1.3-1.69-1.3-.58,0-1.18.15-1.78.45l-.13.62,1.08,1.68h-1.42c-.38,0-.76-.07-1.03-.21v-3.84c-.44,0-.8.36-.8.8v3.04c-.27.13-.59.2-.97.21h-1.08v-2.09c-.49-.25-.98-.37-1.47-.37-1.12,0-1.84.69-1.84,1.65s.72,1.63,1.93,1.63M86.29,42.73c.56,0,.92.41.92.97s-.38.97-.92.97-.9-.41-.9-.97.36-.97.9-.97M78.87,42.54c.31-.15.64-.23.97-.23.57,0,.92.26.92.72,0,.48-.42.91-.99,1.13l-.9-1.62ZM72.2,42.57c.25,0,.49.05.72.17v1.55h-.71c-.6,0-1.01-.3-1.01-.86s.42-.86,1-.86"/>
  <path class="cls-2" d="M91.98,45.11c.44,0,.8-.36.8-.8v-4.08c-.44,0-.8.36-.8.8v4.08Z"/>
  <path class="cls-2" d="M93.85,43.47c0,.96.72,1.63,1.93,1.63h.58c-.05.66-.39.98-1.16.98-.4,0-.82-.09-1.08-.19l-.14.76c.35.13.8.19,1.19.19,1.23,0,1.98-.61,1.98-1.97h0v-2.68c-.49-.25-.98-.37-1.47-.37-1.12,0-1.84.69-1.84,1.65M95.63,42.57c.25,0,.49.05.72.17v1.55h-.71c-.6,0-1.01-.3-1.01-.86s.42-.86,1-.86"/>
  <path class="cls-2" d="M2.97,51.74c.27,0,.54.06.77.17.27.13.6.08.81-.14h0l.16-.17c-.48-.42-1.09-.66-1.75-.66-1.32-.02-2.55.99-2.52,2.38-.03,1.28,1.14,2.41,2.47,2.38.74,0,1.45-.26,1.98-.71v-1.92h-1.24c-.39,0-.7.31-.7.7h1.12v.79c-.31.23-.7.34-1.17.34-.88,0-1.57-.71-1.57-1.57,0-.93.74-1.59,1.61-1.59"/>
  <path class="cls-2" d="M7.57,52.27c-1,0-1.75.76-1.75,1.71s.75,1.72,1.76,1.72c.56,0,1.08-.21,1.47-.57-.22-.21-.55-.29-.83-.17-.18.07-.38.11-.61.11-.54,0-.9-.31-.98-.83h2.68v-.25c0-.98-.74-1.72-1.74-1.72M8.54,53.74h-1.9c.07-.53.42-.85.94-.85.27,0,.5.08.68.24.18.16.27.36.27.6h0Z"/>
  <path class="cls-2" d="M12.29,52.28c-.47,0-.96.17-1.37.48v-.42h0c-.44,0-.8.36-.8.8v1.71c0,.44.36.8.8.8h0v-2.3c.32-.28.72-.43,1.08-.42.39.02.69.36.69.75v1.16c0,.44.36.8.8.8v-2.19c0-.73-.46-1.18-1.21-1.18"/>
  <path class="cls-2" d="M16.04,55.71c.56,0,1.08-.21,1.47-.57-.22-.21-.55-.29-.83-.17-.18.07-.38.11-.61.11-.54,0-.9-.31-.98-.83h2.68v-.25c0-.98-.74-1.72-1.75-1.72s-1.74.76-1.74,1.71.75,1.73,1.76,1.73M16.04,52.9c.27,0,.5.08.68.24.18.16.27.36.27.6h0s-1.9,0-1.9,0c.07-.53.42-.85.94-.85"/>
  <path class="cls-2" d="M20.19,53.06c.32-.11.55-.38.55-.72v-.07c-.49,0-.97.25-1.35.69v-.62h-.06c-.42,0-.75.34-.75.75v2.56h.06c.42,0,.75-.34.75-.75v-1.31c.23-.25.5-.43.8-.53h0Z"/>
  <path class="cls-2" d="M24.28,53.51c0-.79-.51-1.24-1.41-1.24-.54,0-1.07.15-1.53.43.13.29.46.41.76.31.19-.07.39-.1.58-.1.52,0,.79.23.79.67v.04h-1.13c-.8,0-1.29.4-1.29,1.03s.48,1.05,1.24,1.05c.44,0,.83-.15,1.18-.43v.36c.44,0,.8-.36.8-.8v-1.33ZM23.47,54.84c-.29.19-.6.28-.94.28-.43,0-.68-.19-.68-.51s.26-.51.7-.51h.92v.74Z"/>
  <path class="cls-2" d="M25.2,55.65c.45,0,.81-.36.81-.81v-3.82c-.45,0-.81.36-.81.81v3.82Z"/>
  <path class="cls-2" d="M32.46,55.64c.46,0,.78-.47.6-.9l-1.36-3.21c-.13-.32-.45-.52-.79-.52s-.65.2-.79.52l-1.36,3.21c-.18.43.13.9.6.9l.42-1.02h2.26l.42,1.02h0ZM30.07,53.91l.83-2.03.83,2.03h-1.67Z"/>
  <path class="cls-2" d="M37.34,54.84v-2.5h0s0,0,0,0c-.44,0-.8.36-.8.8v1.5c-.31.28-.72.42-1.08.41-.39-.02-.69-.36-.69-.75v-1.96c-.44,0-.8.36-.8.8v1.4c0,.73.46,1.18,1.21,1.18.48,0,.96-.17,1.37-.49v.42c.45,0,.81-.36.81-.81"/>
  <path class="cls-2" d="M40.52,55.47c-.05-.27-.3-.46-.58-.45h-.04c-.34,0-.58-.2-.58-.59v-1.45h.42c.29,0,.52-.23.52-.52v-.12h-.94v-.92h-.25c-.31,0-.56.25-.56.56v.37c-.29,0-.52.23-.52.52v.12h.52v1.58c0,.73.47,1.15,1.13,1.15.29,0,.58-.08.87-.23h0Z"/>
  <path class="cls-2" d="M43.42,52.27c-.47,0-.96.17-1.37.48v-1.74h0c-.44,0-.8.36-.8.8v3.02c0,.45.36.81.81.81v-2.3c.31-.28.72-.43,1.08-.42.39.02.69.36.69.75v1.16c0,.44.36.8.8.8v-2.19c0-.73-.46-1.18-1.21-1.18"/>
  <path class="cls-2" d="M47.25,52.27c-1.03,0-1.84.75-1.84,1.72s.81,1.72,1.84,1.72c1.03.02,1.87-.76,1.85-1.72.02-.96-.82-1.74-1.85-1.72M47.25,55.02c-.59,0-1.04-.45-1.04-1.03s.44-1.03,1.04-1.03,1.05.45,1.05,1.03-.45,1.03-1.05,1.03"/>
  <path class="cls-2" d="M50.73,52.96v-.62c-.45,0-.81.36-.81.81v2.5c.45,0,.81-.36.81-.81v-1.25c.23-.25.5-.43.8-.53h0c.32-.11.55-.38.55-.72v-.07c-.49,0-.97.25-1.35.69"/>
  <path class="cls-2" d="M53.54,54.85v-2.51c-.44,0-.8.36-.8.8v2.51c.44,0,.8-.36.8-.8"/>
  <path class="cls-2" d="M53.14,51.91c.24,0,.44-.18.44-.41,0-.22-.19-.41-.44-.41s-.44.18-.44.41.2.41.44.41"/>
  <path class="cls-2" d="M55.9,55.71c.29,0,.58-.08.87-.23h0c-.05-.28-.3-.46-.58-.45h-.04c-.34,0-.58-.2-.58-.59v-1.45h.42c.29,0,.52-.23.52-.52v-.12h-.94v-.92h-.28c-.29,0-.52.23-.52.52v.4c-.29,0-.52.23-.52.52v.12h.52v1.58c0,.74.47,1.15,1.13,1.15"/>
  <path class="cls-2" d="M59.15,55.96l1.47-3.63h-.34c-.3,0-.56.19-.67.46l-.75,1.98-.8-1.99c-.11-.27-.37-.45-.67-.45h-.36l1.47,3.41-.05.11c-.2.38-.4.53-.71.53h-.07c-.31-.02-.59.16-.71.44.33.12.62.18.88.18.61,0,1.03-.33,1.31-1.03h0Z"/>
  <path class="cls-2" d="M64.4,51.54h0c.27,0,.51-.19.56-.45v-.03c-.23-.07-.48-.11-.74-.11-.69,0-1.18.38-1.18,1.14v.24c-.27,0-.49.22-.49.49v.15h.49v2.12c0,.3.24.54.54.54h.27v-2.66h.48c.27,0,.49-.22.49-.49v-.15h-.97v-.23c0-.37.23-.56.54-.56"/>
  <path class="cls-2" d="M67.15,52.27c-1.03,0-1.84.75-1.84,1.72s.81,1.72,1.84,1.72c1.03.02,1.87-.76,1.85-1.72.02-.96-.82-1.74-1.85-1.72M67.15,55.02c-.59,0-1.04-.45-1.04-1.03s.44-1.03,1.04-1.03,1.05.45,1.05,1.03-.45,1.03-1.05,1.03"/>
  <path class="cls-2" d="M70.64,54.9v-1.31c.23-.25.5-.43.8-.53h0c.32-.11.55-.38.55-.72v-.07c-.49,0-.97.25-1.35.69v-.62h-.06c-.42,0-.75.34-.75.75v2.56h.06c.42,0,.75-.34.75-.75"/>
  <path class="cls-2" d="M76.28,54.96c-.36,0-.76-.07-1.16-.21-.39-.14-.82,0-1.04.35.58.4,1.36.62,2.12.62,1.17,0,1.92-.5,1.92-1.43-.02-.8-.5-1.05-1.53-1.34l-.5-.14c-.73-.2-.87-.3-.87-.55,0-.37.34-.56.83-.56.28,0,.62.06.94.17.39.13.81-.05,1.01-.4h0c-.52-.32-1.22-.51-1.89-.51-.54,0-.99.12-1.33.35-.34.23-.51.57-.51,1.02.03.75.46,1.03,1.56,1.3l.52.13c.66.16.84.26.84.58,0,.43-.37.63-.94.63"/>
  <path class="cls-2" d="M81.46,53.06v1.59c-.32.28-.72.42-1.08.41-.39-.01-.69-.36-.69-.75v-1.96h-.08c-.4,0-.72.32-.72.72v1.48c0,.73.46,1.18,1.21,1.18.48,0,.96-.17,1.37-.49v.42h.09c.4,0,.72-.32.72-.72v-2.59h-.09c-.4,0-.72.32-.72.72"/>
  <path class="cls-2" d="M84.88,53.05c.31-.1.53-.37.53-.69v-.09c-.49,0-.98.25-1.35.69v-.62h-.09c-.4,0-.72.32-.72.72v2.59h.09c.4,0,.72-.32.72-.72v-1.34c.24-.26.52-.44.82-.53h0Z"/>
  <path class="cls-2" d="M89.45,52.34h-.37c-.3,0-.56.18-.67.45l-.81,2.05-.82-2.05c-.11-.27-.38-.45-.67-.45h-.37l1.35,3.31h1.01l1.35-3.31h0Z"/>
  <polygon class="cls-2" points="93.27 54.25 93.27 54.24 93.27 54.24 93.27 54.25"/>
  <path class="cls-2" d="M91.53,52.27c-1,0-1.74.76-1.74,1.71s.75,1.72,1.76,1.72c.56,0,1.08-.21,1.47-.57l-.44-.42c-.24.23-.57.35-.99.35-.54,0-.9-.31-.98-.83h2.68v-.25c0-.98-.74-1.72-1.75-1.72M92.49,53.74h-1.89c.07-.53.42-.85.94-.85.27,0,.5.08.68.24.18.16.27.36.27.6h0Z"/>
  <path class="cls-2" d="M97.21,52.33h-.34c-.3,0-.57.19-.67.46l-.75,1.98-.8-1.99c-.11-.27-.37-.45-.67-.45h-.36l1.47,3.41-.05.11c-.2.38-.4.53-.71.53h-.07c-.31-.02-.59.16-.71.44.33.12.62.18.88.18.61,0,1.03-.33,1.31-1.03h0s1.47-3.64,1.47-3.64Z"/>
  <path class="cls-2" d="M2.12,59.86c-.54,0-1.07.15-1.53.43.13.29.46.41.76.31.19-.07.39-.1.58-.1.52,0,.79.23.79.67v.04h-1.13c-.8,0-1.29.4-1.29,1.03s.48,1.05,1.24,1.05c.44,0,.83-.15,1.18-.43v.36h.2c.34,0,.6-.27.6-.6v-1.53c0-.79-.51-1.24-1.41-1.24M2.73,62.43c-.29.19-.6.28-.94.28-.43,0-.68-.19-.68-.51s.26-.51.7-.51h.92v.74Z"/>
  <path class="cls-2" d="M6.64,59.86c-.47,0-.96.17-1.37.48v-.42h0c-.44,0-.8.36-.8.8v1.71c0,.44.36.8.8.8h0v-2.3c.32-.28.72-.43,1.08-.42.39.02.69.36.69.75v1.16c0,.44.36.8.8.8v-2.19c0-.73-.46-1.18-1.21-1.18"/>
  <path class="cls-2" d="M11.31,59.4v.9c-.26-.29-.64-.45-1.09-.45-.89-.02-1.62.77-1.6,1.72-.02.94.71,1.74,1.6,1.72.45,0,.83-.17,1.09-.46v.39c.44,0,.8-.36.8-.8v-3.83c-.44,0-.8.36-.8.8M11.31,62.16c-.19.29-.53.45-.92.45-.28,0-.52-.1-.7-.29-.18-.2-.27-.44-.27-.74,0-.57.42-1.03.97-1.03.4,0,.73.17.92.45v1.16Z"/>
  <path class="cls-2" d="M17.24,61.36h1.12v.79c-.31.23-.7.34-1.17.34-.88,0-1.56-.71-1.56-1.57,0-.93.74-1.59,1.61-1.59.27,0,.54.06.77.17.27.13.6.08.81-.14h0l.17-.17c-.48-.42-1.09-.66-1.75-.66-1.32-.02-2.55.99-2.52,2.38-.03,1.28,1.14,2.41,2.47,2.38.74,0,1.45-.26,1.98-.71v-1.92h-1.24c-.38,0-.7.31-.7.7"/>
  <path class="cls-2" d="M21.84,59.86c-1,0-1.74.76-1.74,1.71s.75,1.72,1.76,1.72c.56,0,1.08-.21,1.47-.57-.22-.21-.55-.29-.83-.17-.18.07-.38.11-.61.11-.54,0-.9-.31-.98-.83h2.68v-.25c0-.98-.74-1.72-1.75-1.72M22.8,61.33h-1.9c.07-.53.42-.85.94-.85.27,0,.5.08.68.24.18.16.27.36.27.6h0Z"/>
  <path class="cls-2" d="M26.08,59.85c-1.03,0-1.84.75-1.84,1.72s.81,1.72,1.84,1.72c1.03.02,1.87-.76,1.85-1.72.02-.96-.82-1.74-1.85-1.72M26.08,62.6c-.59,0-1.04-.45-1.04-1.03s.44-1.03,1.04-1.03,1.05.45,1.05,1.03-.45,1.03-1.05,1.03"/>
  <path class="cls-2" d="M30.33,61.28l-.37-.1c-.46-.12-.57-.2-.57-.39,0-.24.18-.36.54-.36.2,0,.43.04.64.11.29.09.6-.05.73-.32h0c-.37-.23-.88-.37-1.36-.37-.83,0-1.33.38-1.33,1.01,0,.24.08.42.24.56.16.14.45.27.86.38l.42.11c.42.12.52.2.52.39,0,.27-.2.41-.6.41-.26,0-.54-.05-.81-.15-.29-.1-.62,0-.76.28.43.28.98.44,1.55.44.88,0,1.39-.38,1.39-1.05,0-.5-.3-.75-1.08-.97"/>
  <path class="cls-2" d="M34.14,59.85c-.45,0-.83.17-1.09.45v-.38c-.45,0-.81.36-.81.81v3.79c.45,0,.81-.36.81-.81v-.87c.26.29.64.46,1.09.46h0c.89.02,1.62-.78,1.6-1.72.02-.94-.71-1.74-1.6-1.72M34.68,62.31c-.18.19-.41.29-.7.29-.4,0-.73-.17-.92-.45v-1.17c.19-.29.53-.45.92-.45.28,0,.52.1.7.3.18.19.27.44.27.74s-.09.54-.27.74"/>
  <path class="cls-2" d="M38.22,59.86c-.54,0-1.07.15-1.53.43.13.29.46.41.76.31.19-.07.39-.1.58-.1.52,0,.79.23.79.67v.04h-1.13c-.8,0-1.29.4-1.29,1.03s.48,1.05,1.24,1.05c.44,0,.83-.15,1.18-.43v.36h.2c.34,0,.6-.27.6-.6v-1.53c0-.79-.51-1.24-1.41-1.24M38.83,62.43c-.29.19-.6.28-.94.28-.43,0-.68-.19-.68-.51s.26-.51.7-.51h.92v.74Z"/>
  <path class="cls-2" d="M42.21,62.61h-.07c-.34,0-.58-.2-.58-.59v-1.45h.42c.29,0,.52-.23.52-.52v-.12h-.94v-.92h-.28c-.29,0-.52.23-.52.52v.4c-.29,0-.52.23-.52.52v.12h.52v1.58c0,.74.47,1.15,1.13,1.15.29,0,.58-.08.87-.23h0s0-.03,0-.03c-.05-.26-.28-.44-.54-.42"/>
  <path class="cls-2" d="M43.55,60.72v2.51c.44,0,.8-.36.8-.8v-2.51c-.44,0-.8.36-.8.8"/>
  <path class="cls-2" d="M43.95,58.67c-.24,0-.44.18-.44.41s.2.41.44.41.44-.18.44-.41-.19-.41-.44-.41"/>
  <path class="cls-2" d="M47.01,59.86c-.54,0-1.07.15-1.53.43.13.29.46.41.76.31.19-.07.39-.1.58-.1.52,0,.79.23.79.67v.04h-1.13c-.8,0-1.29.4-1.29,1.03s.48,1.05,1.24,1.05c.44,0,.83-.15,1.18-.43v.36h.2c.34,0,.6-.27.6-.6v-1.53c0-.79-.51-1.24-1.41-1.24M47.62,62.43c-.29.19-.6.28-.94.28-.43,0-.68-.19-.68-.51s.26-.51.7-.51h.92v.74Z"/>
  <path class="cls-2" d="M49.35,59.41v3.82c.45,0,.81-.36.81-.81v-3.82c-.45,0-.81.36-.81.81"/>
  <path class="cls-2" d="M52.93,59.46v3.77c.48,0,.86-.38.86-.86v-3.77c-.48,0-.86.38-.86.86"/>
  <path class="cls-2" d="M57.08,59.86c-.47,0-.96.17-1.37.48v-.42h0c-.44,0-.8.36-.8.8v1.71c0,.44.36.8.8.8h0v-2.3c.32-.28.72-.43,1.08-.42.39.02.69.36.69.75v1.16c0,.44.36.8.8.8v-2.19c0-.73-.46-1.18-1.21-1.18"/>
  <path class="cls-2" d="M59.38,59.67v.24c-.27,0-.49.22-.49.49v.15h.49v2.21c0,.25.2.46.46.46h.35v-2.66h.48c.27,0,.49-.22.49-.49v-.15h-.97v-.23c0-.37.23-.56.54-.56h.05c.24,0,.46-.15.51-.38l.02-.1c-.24-.07-.48-.11-.74-.11-.69,0-1.18.38-1.18,1.14"/>
  <path class="cls-2" d="M63.48,59.85c-1.03,0-1.84.75-1.84,1.72s.81,1.72,1.84,1.72c1.03.02,1.87-.76,1.85-1.72.02-.96-.82-1.74-1.85-1.72M63.48,62.6c-.59,0-1.04-.45-1.04-1.03s.44-1.03,1.04-1.03,1.05.45,1.05,1.03-.45,1.03-1.05,1.03"/>
  <path class="cls-2" d="M66.97,60.54v-.62h-.06c-.42,0-.75.34-.75.75v2.56h.06c.42,0,.75-.34.75-.75v-1.31c.23-.25.5-.43.8-.53h0c.32-.11.55-.38.55-.72v-.07c-.49,0-.97.25-1.35.69"/>
  <path class="cls-2" d="M73.41,59.85h0c-.51,0-.94.15-1.4.54-.18-.35-.53-.54-.99-.54s-.89.17-1.29.52v-.45c-.45,0-.81.36-.81.81v1.7c0,.44.36.8.8.8h0v-2.36c.32-.26.59-.36.94-.36.42,0,.69.27.69.75v1.16c0,.44.36.8.8.8v-1.9c0-.17-.01-.32-.05-.46.29-.24.62-.36.99-.36.42,0,.68.27.68.75v1.16c0,.44.36.8.8.8h0v-2.19c0-.76-.48-1.18-1.18-1.18"/>
  <path class="cls-2" d="M77.15,59.86c-.54,0-1.07.15-1.53.43.13.29.46.41.76.31.19-.07.39-.1.58-.1.52,0,.79.23.79.67v.04h-1.13c-.79,0-1.29.4-1.29,1.03s.48,1.05,1.24,1.05c.44,0,.83-.15,1.18-.43v.36h.2c.34,0,.6-.27.6-.6v-1.53c0-.79-.51-1.24-1.41-1.24M77.76,62.43c-.29.19-.6.28-.94.28-.43,0-.68-.19-.68-.51s.26-.51.7-.51h.92v.74Z"/>
  <path class="cls-2" d="M81.11,62.61h-.04c-.34,0-.58-.2-.58-.59v-1.45h.42c.29,0,.52-.23.52-.52v-.12h-.94v-.92h-.28c-.29,0-.52.23-.52.52v.4c-.29,0-.52.23-.52.52v.12h.52v1.58c0,.74.47,1.15,1.13,1.15.29,0,.58-.08.87-.23h0c-.05-.28-.3-.46-.58-.45"/>
  <path class="cls-2" d="M82.88,58.67c-.24,0-.44.18-.44.41s.2.41.44.41.44-.18.44-.41-.19-.41-.44-.41"/>
  <path class="cls-2" d="M82.48,60.72v2.51c.44,0,.8-.36.8-.8v-2.51c-.44,0-.8.36-.8.8"/>
  <path class="cls-2" d="M86,59.85c-1.03,0-1.84.75-1.84,1.72s.81,1.72,1.84,1.72c1.03.02,1.87-.76,1.85-1.72.02-.96-.82-1.74-1.85-1.72M86,62.6c-.59,0-1.04-.45-1.04-1.03s.44-1.03,1.04-1.03,1.05.45,1.05,1.03-.45,1.03-1.05,1.03"/>
  <path class="cls-2" d="M90.85,59.86c-.47,0-.96.17-1.37.48v-.42h0c-.44,0-.8.36-.8.8v1.71c0,.44.36.8.8.8h0v-2.3c.32-.28.72-.43,1.08-.42.39.02.69.36.69.75v1.16c0,.44.36.8.8.8v-2.19c0-.73-.46-1.18-1.21-1.18"/>
</svg>